<svg width="248" height="30" viewBox="0 0 248 30" fill="none" xmlns="http://www.w3.org/2000/svg">
<path d="M246.309 0.935387H236.315C235.381 0.935387 234.624 1.69259 234.624 2.62665C234.624 3.5607 235.381 4.3179 236.315 4.3179H246.309C247.243 4.3179 248 3.5607 248 2.62665C248 1.69259 247.243 0.935387 246.309 0.935387Z" fill="url(#paint0_linear_64_593)"/>
<path d="M13.3302 22.6143V19.5719H3.32471V13.5184H11.7933V10.476H3.32471V4.07747H13.0165V1.00368H0V22.6143H13.3302Z" fill="#3A3A3A"/>
<path d="M31.1329 10.821C33.0148 10.821 34.238 12.201 34.238 14.4593V22.6143H37.4686V14.1771C37.4686 10.0055 35.4299 7.6531 31.8229 7.6531C29.596 7.6531 27.965 8.62542 26.8986 10.5701C26.0517 8.62542 24.5148 7.6531 22.2879 7.6531C21.4724 7.6531 20.5942 7.84129 19.6846 8.24904C18.775 8.62542 18.1163 9.25272 17.6772 10.1623V7.96675H14.4466V22.6143H17.6772V14.7416C17.6772 12.0756 19.2768 10.821 21.3783 10.821C23.1347 10.821 24.3266 12.1697 24.358 14.3966V22.6143H27.5886V14.7416C27.5886 12.3892 29 10.821 31.1329 10.821Z" fill="#3A3A3A"/>
<path d="M39.3206 7.96675V29.7342H42.5513V20.5128C43.4295 22.0497 45.3427 22.9279 47.4442 22.9279C49.4829 22.9279 51.1767 22.2379 52.5881 20.8265C53.9995 19.415 54.7209 17.5959 54.7209 15.3062C54.7209 13.0479 53.9995 11.1974 52.5881 9.78593C51.1767 8.3745 49.4829 7.6531 47.4442 7.6531C45.4368 7.6531 43.4295 8.59405 42.5513 10.1309V7.96675H39.3206ZM42.5826 15.3689C42.5826 13.9889 43.0217 12.8911 43.8686 12.0442C44.7468 11.1974 45.8132 10.7896 47.0365 10.7896C48.2597 10.7896 49.2948 11.2287 50.1416 12.0756C50.9885 12.9224 51.4276 14.0202 51.4276 15.3689C51.4276 18.0036 49.5457 19.8228 47.0365 19.8228C45.8446 19.8228 44.8095 19.415 43.8999 18.6309C43.0217 17.8154 42.5826 16.7176 42.5826 15.3689Z" fill="#3A3A3A"/>
<path d="M59.0633 22.6143V0H55.8327V22.6143H59.0633Z" fill="#3A3A3A"/>
<path d="M67.7536 19.7914C66.5304 19.7914 65.464 19.3837 64.6171 18.5368C63.7703 17.6899 63.3312 16.5922 63.3312 15.2435C63.3312 13.9261 63.7703 12.8597 64.6171 12.0442C65.464 11.2287 66.5304 10.821 67.7536 10.821C70.2629 10.821 72.2075 12.6088 72.2075 15.2435C72.2075 16.5922 71.7684 17.6899 70.9215 18.5368C70.0747 19.3837 69.0082 19.7914 67.7536 19.7914ZM67.7536 7.6531C65.6208 7.6531 63.8016 8.34313 62.3275 9.75456C60.8533 11.166 60.1319 12.9852 60.1319 15.2435C60.1319 17.5018 60.8533 19.3523 62.3275 20.7951C63.8016 22.2065 65.6208 22.9279 67.7536 22.9279C69.8865 22.9279 71.7057 22.2065 73.1798 20.7951C74.6853 19.3523 75.4381 17.5018 75.4381 15.2435C75.4381 12.9852 74.6853 11.166 73.2112 9.75456C71.737 8.34313 69.9178 7.6531 67.7536 7.6531Z" fill="#3A3A3A"/>
<path d="M85.9925 7.96675L81.8837 18.0036L77.8062 7.96675H74.356L80.1586 21.9242L76.9907 29.7655H80.3781L89.4427 7.96675H85.9925Z" fill="#3A3A3A"/>
<path d="M103.214 15.2435C103.214 12.9538 102.524 11.1346 101.144 9.75456C99.764 8.34313 98.0076 7.6531 95.8747 7.6531C93.7419 7.6531 91.9541 8.34313 90.5113 9.75456C89.0685 11.1346 88.3471 12.9538 88.3471 15.2435C88.3471 17.5331 89.0685 19.3837 90.5113 20.7951C91.9541 22.2065 93.7419 22.9279 95.8747 22.9279C98.7917 22.9279 101.395 21.642 102.65 19.1641L100.015 18.0036C99.2622 19.3523 97.6939 20.1051 96.0315 20.1051C93.6478 20.1051 91.8286 18.6936 91.5463 16.4353H103.183C103.214 16.2158 103.214 15.8394 103.214 15.2435ZM91.5463 14.083C91.8286 11.856 93.5851 10.476 95.8747 10.476C98.1016 10.476 99.764 11.8247 100.046 14.083H91.5463Z" fill="#3A3A3A"/>
<path d="M118.042 15.2435C118.042 12.9538 117.352 11.1346 115.971 9.75456C114.591 8.34313 112.835 7.6531 110.702 7.6531C108.569 7.6531 106.781 8.34313 105.339 9.75456C103.896 11.1346 103.174 12.9538 103.174 15.2435C103.174 17.5331 103.896 19.3837 105.339 20.7951C106.781 22.2065 108.569 22.9279 110.702 22.9279C113.619 22.9279 116.222 21.642 117.477 19.1641L114.842 18.0036C114.09 19.3523 112.521 20.1051 110.859 20.1051C108.475 20.1051 106.656 18.6936 106.374 16.4353H118.01C118.042 16.2158 118.042 15.8394 118.042 15.2435ZM106.374 14.083C106.656 11.856 108.412 10.476 110.702 10.476C112.929 10.476 114.591 11.8247 114.874 14.083H106.374Z" fill="#3A3A3A"/>
<path d="M138.292 22.6143V19.5719H128.287V13.5184H136.755V10.476H128.287V4.07747H137.979V1.00368H124.962V22.6143H138.292Z" fill="#3A3A3A"/>
<path d="M146.409 22.6143L152.525 7.96675H149.075L144.935 18.5054L140.732 7.96675H137.313L143.429 22.6143H146.409Z" fill="#3A3A3A"/>
<path d="M166.984 22.6143V7.96675H163.784V10.0369C162.812 8.49996 160.773 7.6531 158.86 7.6531C156.821 7.6531 155.065 8.3745 153.591 9.78593C152.148 11.1974 151.427 13.0165 151.427 15.2748C151.427 17.5331 152.148 19.3837 153.591 20.7951C155.065 22.2065 156.821 22.9279 158.86 22.9279C160.773 22.9279 162.875 22.0183 163.784 20.5128V22.6143H166.984ZM163.753 15.2435C163.753 18.0036 161.746 19.7914 159.236 19.7914C157.982 19.7914 156.915 19.3523 156.037 18.5054C155.19 17.6586 154.751 16.5608 154.751 15.2435C154.751 13.9261 155.19 12.8597 156.037 12.0442C156.915 11.1974 157.982 10.7896 159.236 10.7896C160.428 10.7896 161.463 11.1974 162.373 12.0129C163.283 12.797 163.753 13.8948 163.753 15.2435Z" fill="#3A3A3A"/>
<path d="M172.233 22.6143V0H169.002V22.6143H172.233Z" fill="#3A3A3A"/>
<path d="M184.154 15.8394C184.154 18.5682 182.523 19.7914 180.39 19.7914C178.602 19.7914 177.347 18.4741 177.347 16.1217V7.96675H174.117V16.4981C174.085 20.6069 176.187 22.9279 179.794 22.9279C181.456 22.9279 183.37 22.0183 184.154 20.4814V22.6143H187.384V7.96675H184.154V15.8394Z" fill="#3A3A3A"/>
<path d="M203.962 22.6143V7.96675H200.762V10.0369C199.79 8.49996 197.751 7.6531 195.838 7.6531C193.799 7.6531 192.043 8.3745 190.569 9.78593C189.126 11.1974 188.404 13.0165 188.404 15.2748C188.404 17.5331 189.126 19.3837 190.569 20.7951C192.043 22.2065 193.799 22.9279 195.838 22.9279C197.751 22.9279 199.853 22.0183 200.762 20.5128V22.6143H203.962ZM200.731 15.2435C200.731 18.0036 198.724 19.7914 196.214 19.7914C194.96 19.7914 193.893 19.3523 193.015 18.5054C192.168 17.6586 191.729 16.5608 191.729 15.2435C191.729 13.9261 192.168 12.8597 193.015 12.0442C193.893 11.1974 194.96 10.7896 196.214 10.7896C197.406 10.7896 198.441 11.1974 199.351 12.0129C200.26 12.797 200.731 13.8948 200.731 15.2435Z" fill="#3A3A3A"/>
<path d="M207.14 2.41512V7.96675H204.506V10.6328H207.14V22.6143H210.371V10.6328H213.476V7.96675H210.371V2.41512H207.14Z" fill="#3A3A3A"/>
<path d="M217.207 22.6143V7.96675H214.007V22.6143H217.207ZM215.607 0C214.447 0 213.443 0.909589 213.443 2.03874C213.443 3.16788 214.447 4.07747 215.607 4.07747C216.83 4.07747 217.74 3.19925 217.74 2.03874C217.74 0.878224 216.83 0 215.607 0Z" fill="#3A3A3A"/>
<path d="M225.898 19.7914C224.675 19.7914 223.608 19.3837 222.761 18.5368C221.914 17.6899 221.475 16.5922 221.475 15.2435C221.475 13.9261 221.914 12.8597 222.761 12.0442C223.608 11.2287 224.675 10.821 225.898 10.821C228.407 10.821 230.352 12.6088 230.352 15.2435C230.352 16.5922 229.913 17.6899 229.066 18.5368C228.219 19.3837 227.152 19.7914 225.898 19.7914ZM225.898 7.6531C223.765 7.6531 221.946 8.34313 220.472 9.75456C218.997 11.166 218.276 12.9852 218.276 15.2435C218.276 17.5018 218.997 19.3523 220.472 20.7951C221.946 22.2065 223.765 22.9279 225.898 22.9279C228.031 22.9279 229.85 22.2065 231.324 20.7951C232.829 19.3523 233.582 17.5018 233.582 15.2435C233.582 12.9852 232.829 11.166 231.355 9.75456C229.881 8.34313 228.062 7.6531 225.898 7.6531Z" fill="#3A3A3A"/>
<path d="M237.888 14.7416C237.888 12.0756 239.519 10.821 241.651 10.821C243.533 10.821 244.725 12.1697 244.725 14.4593V22.6143H247.956V14.083C247.956 9.94275 245.917 7.6531 242.373 7.6531C240.616 7.6531 238.672 8.56269 237.888 10.1623V7.96675H234.657V22.6143H237.888V14.7416Z" fill="#3A3A3A"/>
<defs>
<linearGradient id="paint0_linear_64_593" x1="234.558" y1="2.54448" x2="247.934" y2="2.54448" gradientUnits="userSpaceOnUse">
<stop stop-color="#FA1C63"/>
<stop offset="0.575595" stop-color="#F2D003"/>
<stop offset="1" stop-color="#00C97D"/>
</linearGradient>
</defs>
</svg>
